<?xml version="1.0" encoding="utf-8"?>
<!-- Generator: Adobe Illustrator 27.5.0, SVG Export Plug-In . SVG Version: 6.00 Build 0)  -->
<svg version="1.1" id="Layer_1" xmlns="http://www.w3.org/2000/svg" xmlns:xlink="http://www.w3.org/1999/xlink" x="0px" y="0px"
	 viewBox="0 0 3047.984 2000" style="enable-background:new 0 0 3047.984 2000;" xml:space="preserve">
<rect x="0" style="fill:#FFFFFF;" width="3047.984" height="2000"/>
<g>
	<g>
		<g>
			<g>
				<g>
					<g>
						<g>
							<path style="fill:#DCF4FF;" d="M370.231,1845.192c0,0-204.558-210.908-151.838-742.177
								c31.02-312.597,321.827-805.139,998.285-901.58c453.828-64.701,518.849,262.692,1017.181,344.003
								c635.063,103.622,785.413,649.036,400.138,1299.755H370.231z"/>
						</g>
					</g>
				</g>
			</g>
			<g>
				<rect x="215.721" y="1841.226" style="fill:#49263E;" width="2577.316" height="7.933"/>
			</g>
		</g>
		<path style="fill:#DCF4FF;" d="M2110.009,414.768c205.777,76.731,246.761,19.253,236.635-56.889
			c-13.401-100.767-104.123-172.715-205.519-165.481c-136.679,9.752-306.255,44.138-145.174,161.43
			C2030.953,379.316,2069.439,399.64,2110.009,414.768z"/>
	</g>
	<g>
		<g>
			<g>
				<g>
					<g>
						<g>
							<g>
								<g>
									<g>
										<polygon style="fill:#FE9F73;" points="1132.497,1805.953 1211.328,1807.424 1213.059,1733.369 1134.61,1723.206 
																					"/>
									</g>
								</g>
							</g>
						</g>
					</g>
				</g>
			</g>
			<g>
				<g>
					<g>
						<g>
							<path style="fill:#FC384B;" d="M1212.454,1827.098l-67.417,0.059l-27.36-29.75l-49.968,29.817l-10.768,0.009
								c-3.71,0.003-7.11,2.516-7.806,6.16c-0.936,4.904,2.8,9.189,7.535,9.185l156.759-0.136c1.152-0.001,2.085-0.935,2.084-2.087
								l-0.009-10.212C1215.503,1828.46,1214.137,1827.097,1212.454,1827.098z"/>
						</g>
					</g>
				</g>
				<g>
					<g>
						<g>
							<path style="fill:#1A2C3A;" d="M1211.858,1827.185l-0.024-27.674c0,0-11.367-15.273-28.648-7.458
								c0,0-26.131,18.572-49.201-3.855l-57.217,25.44c0,0-15.69,5.26-19.932,13.682L1211.858,1827.185z"/>
						</g>
					</g>
				</g>
				<g>
					<g>
						<g>
							<g>
								<g>
									<rect x="1211.273" y="1799.511" width="1.148" height="27.537"/>
								</g>
							</g>
						</g>
					</g>
				</g>
				<g>
					<g>
						<g>
							<g>
								<g>
									<path d="M1159.759,1799.858c-2.191,0.002-3.511-0.184-3.554-0.191l0.169-1.134c0.133,0.018,13.646,1.901,26.487-6.951
										l0.651,0.946C1174.312,1798.869,1164.766,1799.853,1159.759,1799.858z"/>
								</g>
							</g>
						</g>
					</g>
				</g>
				<g>
					<g>
						<g>
							<g>
								<g>
									
										<rect x="1196.846" y="1818.51" transform="matrix(0.8291 -0.5591 0.5591 0.8291 -811.7486 982.4859)" width="8.819" height="1.148"/>
								</g>
							</g>
						</g>
					</g>
				</g>
				<g>
					<g>
						<g>
							<g>
								<g>
									
										<rect x="1191.602" y="1817.121" transform="matrix(0.8287 -0.5597 0.5597 0.8287 -812.5259 980.8937)" width="8.818" height="1.146"/>
								</g>
							</g>
						</g>
					</g>
				</g>
				<g>
					<g>
						<g>
							<g>
								<g>
									<g>
										<g>
											<g>
												<g>
													<g>
														<g>
															<path d="M1051.336,1841.251c-1.853-1.568-2.916-3.86-2.918-6.286c-0.004-4.547,3.692-8.25,8.239-8.254l154.998-0.135
																c2.438-0.002,4.422,1.98,4.424,4.418l0.007,7.65l-1.148,0.001l-0.007-7.65c-0.002-1.805-1.471-3.273-3.275-3.271
																l-154.998,0.135c-3.915,0.003-7.096,3.19-7.093,7.105c0.002,2.088,0.917,4.061,2.512,5.413L1051.336,1841.251z"/>
														</g>
													</g>
												</g>
											</g>
										</g>
									</g>
								</g>
							</g>
						</g>
					</g>
				</g>
				<g>
					<g>
						<g>
							<g>
								<g>
									<path d="M1057.177,1827.53l-1.038-0.489c0.127-0.272,3.262-6.709,14.974-11.715c11.509-4.92,62.13-27.425,62.64-27.651
										l0.467,1.049c-0.511,0.227-51.14,22.735-62.655,27.658C1060.294,1821.199,1057.206,1827.468,1057.177,1827.53z"/>
								</g>
							</g>
						</g>
					</g>
				</g>
			</g>
			<g>
				<g>
					<g>
						<g>
							<g>
								<path style="fill:#FE9F73;" d="M821.566,722.401c1.136-2.639,4.226-3.84,6.932-2.877l16.84,5.992
									c0.528,0.188,1.117,0.019,1.465-0.42l0,0c0.514-0.647,0.308-1.602-0.427-1.98l-23.477-12.067
									c-2.69-1.382-3.352-4.451-1.471-6.82l0,0c1.881-2.369,5.62-3.175,8.31-1.793l23.941,12.305
									c0.556,0.286,1.236,0.139,1.625-0.351l0.275-0.347c0.45-0.567,0.355-1.391-0.212-1.84l-23.384-18.566
									c-2.25-1.786-2.866-5.044-1.229-7.404c1.794-2.586,5.366-3.084,7.791-1.158l23.528,18.681
									c0.567,0.45,1.391,0.355,1.84-0.211l0.873-1.1c0.409-0.515,0.372-1.253-0.085-1.726l-19.419-20.05
									c-1.998-2.064-2.186-5.373-0.256-7.501c2.115-2.331,5.721-2.361,7.876-0.136c0,0,31.253,28.984,36.507,33.116l19.802,17.025
									c0.221,1.929-2.187,4.98-4.709,6.971c-17.834,26.362-20.798,30.276-26.26,36.941l-25.913-22.039
									c-7.477-6.359-16.049-11.305-25.297-14.596l-2.322-0.826C821.789,728.586,820.321,725.292,821.566,722.401z"/>
							</g>
						</g>
					</g>
				</g>
			</g>
			<g>
				
					<rect x="713.026" y="679.921" transform="matrix(-0.4341 0.9009 -0.9009 -0.4341 1829.4418 317.1805)" style="fill:#FED9AD;" width="204.139" height="106.585"/>
				<g>
					<path style="fill:#21111D;" d="M838.063,630.98c0.203-0.421,0.708-0.598,1.129-0.395l70.032,33.744l-108.193,62.108
						l15.244,99.743c0.069,0.462-0.248,0.894-0.709,0.964c-0.462,0.07-0.894-0.247-0.964-0.709l-15.418-100.888l0.502-0.289
						l105.911-60.799l-67.14-32.35C838.037,631.906,837.86,631.401,838.063,630.98z"/>
				</g>
				<g>
					<path style="fill:#21111D;" d="M810.628,617.762c0.132-0.274,0.408-0.468,0.733-0.479c0.467-0.016,0.859,0.35,0.875,0.817
						l3.392,99.439c0.016,0.466-0.349,0.858-0.816,0.874c-0.467,0.016-0.859-0.35-0.875-0.817l-3.392-99.439
						C810.541,618.016,810.571,617.881,810.628,617.762z"/>
				</g>
				<g>
					<path style="fill:#21111D;" d="M726.01,793.38l71.663-148.731c0.203-0.421,0.708-0.598,1.129-0.395
						c0.421,0.203,0.598,0.708,0.395,1.129l-71.663,148.731c-0.203,0.421-0.708,0.598-1.129,0.395
						C725.984,794.306,725.807,793.801,726.01,793.38z"/>
				</g>
				<g>
					<path style="fill:#21111D;" d="M722.018,801.665c0.057-0.119,0.144-0.227,0.257-0.311l79.884-59.313
						c0.375-0.279,0.905-0.2,1.184,0.175c0.278,0.376,0.2,0.904-0.175,1.183l-79.884,59.313c-0.375,0.279-0.905,0.2-1.184-0.175
						C721.906,802.276,721.886,801.939,722.018,801.665z"/>
				</g>
				<g>
					<path style="fill:#21111D;" d="M813.719,845.851c0.203-0.421,0.708-0.598,1.129-0.395l3.557,1.714l24.922-51.724
						c0.203-0.421,0.708-0.598,1.129-0.395c0.421,0.203,0.598,0.708,0.395,1.129l-25.657,53.248l-5.081-2.448
						C813.693,846.777,813.517,846.272,813.719,845.851z"/>
				</g>
			</g>
			<path style="fill:#FE9F73;" d="M911.898,723.966c-16.284-23.051-25.092-36.586-31.013-38.278
				c-5.921-1.692-7.264,3.384-6.418,4.864c0.846,1.48,13.323,27.862,13.323,27.862C897.095,722.486,911.898,723.966,911.898,723.966
				z"/>
			<g>
				<g>
					<g>
						<g>
							<g>
								<g>
									<g>
										<polygon style="fill:#FE9F73;" points="1285.71,1805.969 1363.677,1807.425 1365.405,1733.369 1287.817,1723.222 
																					"/>
									</g>
								</g>
							</g>
						</g>
					</g>
				</g>
			</g>
			<g>
				<g>
					<g>
						<g>
							<g>
								<path style="fill:#F9B870;" d="M1274.213,1146.377c0,0-15.386,387.118-49.105,610.492c0,0-49.825,7.98-106.297-14.151
									l-6.459-615.539l6.41-36.594L1274.213,1146.377z"/>
							</g>
						</g>
					</g>
				</g>
			</g>
			<g>
				<g>
					<g>
						<g>
							<g>
								<path style="fill:#21111D;" d="M1202.42,1759.493c-42.917,0-83.423-16.03-83.9-16.221c-0.401-0.161-0.595-0.617-0.435-1.017
									c0.162-0.401,0.619-0.592,1.017-0.434c0.558,0.224,56.071,22.19,105.727,14.469c1.359-10.682,20.61-162.411,22.381-196.977
									c0.023-0.432,0.433-0.762,0.821-0.741c0.432,0.022,0.764,0.39,0.741,0.82c-1.83,35.712-22.26,196.062-22.465,197.677
									l-0.074,0.58l-0.578,0.093C1217.979,1758.972,1210.158,1759.493,1202.42,1759.493z"/>
							</g>
						</g>
					</g>
				</g>
			</g>
			<g>
				<g>
					<g>
						<g>
							<g>
								<path style="fill:#FEC786;" d="M1388.67,1149.945c0,0,0.8,117.672-2.394,262.855
									c-2.557,116.259-8.195,251.27-14.992,349.362c0,0-49.344,10.552-106.888-8.62l-47.154-542.426l-29.545-146.672
									L1388.67,1149.945z"/>
							</g>
						</g>
					</g>
				</g>
			</g>
			<g>
				<g>
					<g>
						<g>
							<g>
								<path style="fill:#21111D;" d="M1341.684,1765.935c-37.84,0.002-77.012-11.495-77.51-11.644
									c-0.414-0.123-0.65-0.559-0.526-0.972c0.122-0.414,0.556-0.652,0.972-0.526c0.626,0.186,62.9,18.454,105.916,8.739
									c0.999-18.069,23.383-426.331,17.631-576.324c-0.017-0.431,0.32-0.794,0.752-0.81c0,0,0.02-0.001,0.029-0.001
									c0.418,0,0.766,0.331,0.781,0.752c5.857,152.702-17.428,572.831-17.664,577.057l-0.032,0.586l-0.571,0.132
									C1362.173,1765.084,1351.975,1765.935,1341.684,1765.935z M1371.284,1762.162h0.01H1371.284z"/>
							</g>
						</g>
					</g>
				</g>
			</g>
			<g>
				<g>
					<g>
						<g>
							<g>
								<path style="fill:#21111D;" d="M1334.543,1765.83c-0.007,0-0.015,0-0.022,0c-0.432-0.013-0.772-0.373-0.759-0.804
									c0.113-3.922,11.232-392.707,6.352-440.997c-0.044-0.43,0.27-0.812,0.699-0.856c0.421-0.049,0.812,0.27,0.856,0.699
									c4.892,48.39-6.231,437.276-6.344,441.199C1335.313,1765.495,1334.965,1765.83,1334.543,1765.83z"/>
							</g>
						</g>
					</g>
				</g>
			</g>
			<g>
				<g>
					<g>
						<g>
							<g>
								<path style="fill:#21111D;" d="M1193.283,1758.707c-0.012,0-0.024,0-0.036-0.001c-0.432-0.019-0.766-0.384-0.746-0.816
									l18.689-421.454c0.019-0.432,0.386-0.796,0.815-0.746c0.432,0.019,0.766,0.384,0.746,0.816l-18.689,421.454
									C1194.045,1758.379,1193.699,1758.707,1193.283,1758.707z"/>
							</g>
						</g>
					</g>
				</g>
			</g>
			<g>
				<g>
					<path style="fill:#4CB7D8;" d="M1175.376,719.238l17.911-1.848l107.576-2.729l25.469,0.318l20.962,216.361l-8.942,227.024
						c0,0-141.993,18.765-190.345-11.852C1099.656,1115.895,1175.376,719.238,1175.376,719.238z"/>
				</g>
			</g>
			<g>
				<g>
					<g>
						<g>
							<path style="fill:#4CB7D8;" d="M930.209,722.933l-5.577-7.002c0,0-49.494,13.915-67.411,54.494l7.84,10.567
								C865.061,780.993,901.257,735.827,930.209,722.933z"/>
						</g>
					</g>
				</g>
			</g>
			<g>
				<g>
					<path style="fill:#223749;" d="M1192.172,717.152c-20.902,1.568-59.165,5.088-64.402,8.267l-104.999,95.249l-89.624-98.249
						c0,0-48.158,7.277-71.032,59.776c0,0,108.532,161.096,134.782,159.971c26.25-1.125,113.84-59.871,113.84-59.871l-8.535,352.996
						c28.563,3.356,55.571,5.683,80.853,7.226L1192.172,717.152z"/>
				</g>
			</g>
			<g>
				<g>
					<g>
						<g>
							<polygon style="fill:#21111D;" points="1366.395,950.973 1368.39,948.611 1348.881,932.117 1341.433,841.667 
								1338.352,841.92 1345.905,933.65 							"/>
						</g>
					</g>
				</g>
			</g>
			<g>
				<g>
					<g>
						<g>
							<path style="fill:#21111D;" d="M1021.685,846.948l2.566-25.534l101.674-92.234c7.453-6.76,21.937-6.85,22.082-6.85v-3.092
								h-0.001c-0.658,0-15.82,0.088-24.158,7.652l-102.555,93.033l-2.684,26.716L1021.685,846.948z"/>
						</g>
					</g>
				</g>
			</g>
			<g>
				<g>
					<g>
						<g>
							<path style="fill:#21111D;" d="M1021.629,821.71l2.286-2.083l-90.19-98.868l-0.828,0.135
								c-0.479,0.078-48.156,8.415-72.187,60.656l2.808,1.292c21.617-46.992,62.801-57.406,69.073-58.738L1021.629,821.71z"/>
						</g>
					</g>
				</g>
			</g>
			<g>
				<g>
					<g>
						<g>
							<path style="fill:#4CB7D8;" d="M1193.286,717.39c29.591-1.633,56.107-2.31,56.107-2.31s23.716-0.539,51.469-0.419
								c0.002,0.163,0.012,0.323,0.012,0.486c0,30.28-24.547,54.827-54.827,54.827
								C1216.457,769.974,1194.368,746.717,1193.286,717.39z"/>
						</g>
					</g>
				</g>
			</g>
			<g>
				<g>
					<g>
						<g>
							<path style="fill:#21111D;" d="M1272.711,769.974c15.569-9.703,26.87-24.727,31.824-42.304l-2.976-0.839
								c-4.745,16.835-15.571,31.225-30.483,40.52L1272.711,769.974z"/>
						</g>
					</g>
				</g>
			</g>
			<g>
				<g>
					<g>
						<g>
							<g>
								<path style="fill:#FE9F73;" d="M1242.524,594.866c0,0,23.988-7.69,43.832,1.243c11.491,5.173,18.333,17.181,17.177,29.729
									l-1.131,12.271l-60.68-32.794c0,0-10.426,3.805-9.493,2.444C1233.163,606.396,1242.524,594.866,1242.524,594.866z"/>
							</g>
						</g>
					</g>
				</g>
				<g>
					<g>
						<g>
							<g>
								<g>
									<g>
										<g>
											<path style="fill:#FE9F73;" d="M1303.654,624.457l-4.769,51.749c0,0-0.934,18.56-17.325,19.381l0.747,24.947
												c0.278,9.273-6.014,17.547-15.078,19.523c-4.432,0.967-9.664,1.489-15.494,0.951
												c-18.49-1.704-27.227-16.494-28.129-23.57c-0.902-7.075,6.773-39.776,6.773-39.776l0.937-16.33l7.916-62.879
												L1303.654,624.457z"/>
										</g>
									</g>
								</g>
							</g>
						</g>
					</g>
					<g>
						<g>
							<g>
								<g>
									<g>
										<g>
											<g>
												<g>
													<g>
														<g>
															<path style="fill:#FBFDFC;" d="M1279.322,671.83c0.128-0.02,0.256-0.04,0.384-0.06
																c2.884-0.451,4.421,3.303,1.626,3.988c-0.161,0.04-0.329,0.073-0.504,0.101c-0.176,0.028-0.35,0.048-0.521,0.06
																C1277.357,676.137,1276.434,672.281,1279.322,671.83z"/>
														</g>
													</g>
												</g>
											</g>
										</g>
									</g>
								</g>
							</g>
						</g>
					</g>
					<g>
						<g>
							<g>
								<g>
									<g>
										<g>
											<path style="fill:#4C222E;" d="M1257.754,639.629c-0.187-0.047-0.357-0.163-0.467-0.34
												c-0.227-0.361-0.118-0.839,0.244-1.066c0.13-0.082,13.099-8.053,20.625,1.911c0.258,0.34,0.19,0.826-0.151,1.083
												c-0.341,0.259-0.826,0.191-1.084-0.151c-6.67-8.828-18.086-1.835-18.569-1.533
												C1258.168,639.65,1257.952,639.678,1257.754,639.629z"/>
										</g>
									</g>
								</g>
							</g>
						</g>
					</g>
					<g>
						<g>
							<g>
								<g>
									<g>
										<g>
											<path style="fill:#4C222E;" d="M1288.594,641.27c-0.201-0.081-0.367-0.245-0.443-0.466
												c-0.139-0.404,0.076-0.844,0.48-0.983c0.39-0.135,9.594-3.233,12.427,2.221c0.197,0.379,0.05,0.846-0.329,1.043
												c-0.379,0.198-0.846,0.05-1.043-0.33c-2.22-4.272-10.468-1.5-10.551-1.471
												C1288.951,641.347,1288.761,641.337,1288.594,641.27z"/>
										</g>
									</g>
								</g>
							</g>
						</g>
					</g>
					<g>
						<g>
							<g>
								<g>
									<g>
										<g>
											<path d="M1272.057,649.292c-0.118,1.277-1.248,2.216-2.524,2.098c-1.276-0.118-2.216-1.248-2.098-2.524
												c0.118-1.276,1.248-2.216,2.524-2.098C1271.235,646.886,1272.175,648.016,1272.057,649.292z"/>
										</g>
									</g>
								</g>
							</g>
						</g>
					</g>
					<g>
						<g>
							<g>
								<g>
									<g>
										<g>
											<path d="M1296.837,649.245c-0.118,1.277-1.248,2.216-2.524,2.098c-1.277-0.118-2.216-1.248-2.098-2.524
												c0.118-1.276,1.248-2.216,2.524-2.098C1296.016,646.839,1296.955,647.969,1296.837,649.245z"/>
										</g>
									</g>
								</g>
							</g>
						</g>
					</g>
					<g>
						<g>
							<g>
								<g>
									<g>
										<g>
											<path style="fill:#4C222E;" d="M1242.598,594.059c0,0-19.484-2.743-26.026,13.919
												c-6.543,16.662,1.085,26.492,0.785,31.612c-0.299,5.12-6.931,39.212,17.463,38.87l11.762-56.237l-6.323-23.404
												L1242.598,594.059z"/>
										</g>
									</g>
								</g>
							</g>
						</g>
					</g>
					<g>
						<g>
							<g>
								<g>
									<g>
										<g>
											<path style="fill:#FE9F73;" d="M1253.043,646.731c-0.706,7.659-7.486,13.295-15.145,12.589
												c-7.658-0.706-13.295-7.486-12.589-15.145c0.706-7.659,7.487-13.295,15.145-12.589
												C1248.112,632.292,1253.748,639.072,1253.043,646.731z"/>
										</g>
									</g>
								</g>
							</g>
						</g>
					</g>
					<g>
						<g>
							<g>
								<g>
									<g>
										<g>
											<path style="fill:#F07162;" d="M1237.367,653.856c-2.881-0.265-4.605-2.608-5.039-4.83
												c-0.513-2.629,0.574-5.036,2.772-6.135c3.247-1.623,5.918-0.144,7.258,0.926c-0.453-1.629-1.286-2.861-2.485-3.672
												c-2.594-1.756-6.083-0.973-6.118-0.964c-0.208,0.049-0.416-0.081-0.465-0.289c-0.048-0.208,0.081-0.415,0.289-0.464
												c0.156-0.036,3.845-0.869,6.723,1.074c1.661,1.121,2.695,2.931,3.072,5.378l0.212,1.372l-0.891-1.065
												c-0.126-0.151-3.128-3.661-7.248-1.603c-2.281,1.14-2.696,3.565-2.358,5.294c0.351,1.796,1.7,3.964,4.348,4.208
												c0.026,0.003,0.052,0.003,0.08,0.007c0.21,0.019,0.366,0.204,0.35,0.415c-0.016,0.213-0.203,0.372-0.416,0.355
												C1237.421,653.86,1237.394,653.859,1237.367,653.856z"/>
										</g>
									</g>
								</g>
							</g>
						</g>
					</g>
					<g>
						<g>
							<g>
								<g>
									<g>
										<g>
											<path style="fill:#F07162;" d="M1245.501,676.423c0,0-1.767,31.047,36.611,37.564l-0.551-18.4
												C1281.56,695.587,1256.03,698.313,1245.501,676.423z"/>
										</g>
									</g>
								</g>
							</g>
						</g>
					</g>
					<g>
						<g>
							<g>
								<g>
									<g>
										<g>
											<path style="fill:#F07162;" d="M1278.774,665.633c-0.162-0.015-0.303-0.131-0.341-0.298
												c-0.048-0.209,0.081-0.416,0.289-0.464l7.957-1.842l-0.765-18.398c-0.009-0.213,0.157-0.394,0.37-0.402
												c0.216-0.014,0.394,0.157,0.403,0.37l0.792,19.039l-8.583,1.986C1278.855,665.635,1278.814,665.637,1278.774,665.633z"/>
										</g>
									</g>
								</g>
							</g>
						</g>
					</g>
					<g>
						<g>
							<g>
								<g>
									<polygon style="fill:#FE9F73;" points="1229.411,681.915 1234.501,656.076 1240.911,657.39 1238.504,683.511 									"/>
								</g>
							</g>
						</g>
					</g>
				</g>
				<g>
					<g>
						<g>
							<g>
								<path style="fill:#4C222E;" d="M1246.508,623.031c0,0,59.211,1.938,64.113-11.524c4.902-13.462-8.914-15.101-8.914-15.101
									s4.401-19.366-13.924-15.197c-18.325,4.17-51.212,0.372-61.998,16.006C1214.999,612.847,1246.508,623.031,1246.508,623.031z
									"/>
							</g>
						</g>
					</g>
				</g>
				<g>
					<g>
						<g>
							<path style="fill:#4C222E;" d="M1245.719,619.249l-1.174,12.714c0,0,4.239,7.934,1.728,17.284c0,0,3.481,1.655,4.382-1.263
								c0.901-2.919-0.953-23.944,6.6-27.04c7.553-3.096-12.609-8.903-13.264-8.648c-0.656,0.255-13.075,5.224-11.482,5.103
								C1234.103,617.28,1245.719,619.249,1245.719,619.249z"/>
						</g>
					</g>
				</g>
			</g>
			<g>
				<g>
					<path style="fill:#223749;" d="M1459.391,932.792c-8-63.499-59.499-203.497-73.499-211.997
						c-6.477-3.933-36.182-5.449-66.234-5.943c0.082,0.359,0.179,0.708,0.244,1.08c7.132,41.041,8.003,483.154,8.657,522.973
						c51.005-2.813,79.662-8.025,79.662-8.025l-14.972-185.589l17.643-0.375C1459.391,1037.416,1467.391,996.291,1459.391,932.792z"
						/>
				</g>
			</g>
			<g>
				<g>
					<g>
						<g>
							<path style="fill:#4C222E;" d="M1145.151,1063.916h113.216c4.836,0,8.756-3.92,8.756-8.756V907.299
								c0-4.836-3.92-8.756-8.756-8.756h-113.216c-4.836,0-8.756,3.92-8.756,8.756v147.861
								C1136.395,1059.995,1140.315,1063.916,1145.151,1063.916z"/>
						</g>
					</g>
				</g>
			</g>
			<g>
				<g>
					<g>
						<g>
							<path style="fill:#FFFFFF;" d="M1166.936,892.293h64.171c2.547,0,4.611,2.064,4.611,4.611v1.639h-73.393v-1.639
								C1162.325,894.357,1164.389,892.293,1166.936,892.293z"/>
						</g>
					</g>
				</g>
			</g>
			<g>
				<g>
					<g>
						<g>
							<g>
								<g>
									<g>
										<path style="fill:#FE9F73;" d="M1133.267,983.688c-14.123-12.443,0.674-14.537,0.674-14.537
											c-6.894-7.457-5.291-10.936-2.758-12.54c1.854-1.174,4.183-1.304,6.229-0.509c6.494,2.522,26.293,10.29,38.388,15.878
											c8.6-0.609,5.857-15.106,2.01-22.534c-1.982-3.827-2.119-10.149,7.214-3.782c7.626,5.203,19.085,22.332,19.085,22.332
											l47.928-4.606l-7.141,66.047c0,0-54.711-0.765-62.955-0.824c-8.244-0.058-35.851-9.458-44.189-16.717
											c-15.13-13.171-5.613-13.842-5.613-13.842C1117.703,982.901,1133.267,983.688,1133.267,983.688z"/>
									</g>
								</g>
							</g>
						</g>
					</g>
				</g>
			</g>
			<g>
				<g>
					<g>
						<g>
							<path style="fill:#4CB7D8;" d="M1221.772,947.626h-9.628c0,0-10.25,65.916,3.75,96.165h11.971
								C1227.865,1043.791,1213.9,981.959,1221.772,947.626z"/>
						</g>
					</g>
				</g>
			</g>
			<g>
				<g>
					<g>
						<g>
							<path style="fill:#223749;" d="M1331.757,933.885l-107.863,6.907c0,0-9.75,30.75,1.967,93.095
								c1.138,6.054,3.532,16.403,3.532,16.403s118.708,1.182,126.393-14.725c4.826-9.988-8.23-38.504-8.23-38.504L1331.757,933.885
								z"/>
						</g>
					</g>
				</g>
			</g>
			<g>
				<g>
					<g>
						<g>
							<path style="fill:#21111D;" d="M1228.203,1051.874l165.093-5.038l-0.094-3.09l-162.605,4.962
								c-2.323-9.621-17.212-74.365-5.605-106.436l122.5-7.844l-0.198-3.086l-124.487,7.972l-0.355,0.923
								c-13.522,35.057,4.663,107.375,5.444,110.437L1228.203,1051.874z"/>
						</g>
					</g>
				</g>
			</g>
			<g>
				<g>
					<g>
						<g>
							<path style="fill:#21111D;" d="M1393.282,1046.836l17.847-0.392c23.804-3.681,39.064-15.475,46.651-36.055
								c6.583-17.856,7.582-42.574,3.146-77.79l-3.068,0.386c9.042,71.776-4.604,103.768-47.1,110.387l-17.54,0.372
								L1393.282,1046.836z"/>
						</g>
					</g>
				</g>
			</g>
			<g>
				<g>
					<g>
						<g>
							<g>
								<g>
									<g>
										<g>
											<path style="fill:#F07162;" d="M1151.238,980.055c0.417,0.033,0.825-0.202,0.993-0.61
												c0.209-0.506-0.032-1.085-0.538-1.294c-7.094-2.927-17.092-9.749-17.192-9.818c-0.451-0.308-1.068-0.193-1.378,0.257
												c-0.309,0.453-0.194,1.069,0.258,1.379c0.416,0.284,10.269,7.007,17.557,10.013
												C1151.036,980.023,1151.137,980.047,1151.238,980.055z"/>
										</g>
									</g>
								</g>
							</g>
						</g>
					</g>
				</g>
			</g>
			<g>
				<g>
					<g>
						<g>
							<g>
								<g>
									<g>
										<g>
											<path style="fill:#F07162;" d="M1150.256,992.57c0.467,0.037,0.908-0.263,1.034-0.731
												c0.141-0.529-0.172-1.072-0.701-1.214c-9.018-2.422-16.68-7.698-16.757-7.751c-0.452-0.313-1.069-0.199-1.38,0.248
												c-0.312,0.45-0.201,1.068,0.248,1.38c0.323,0.224,8.012,5.523,17.375,8.038
												C1150.135,992.555,1150.196,992.565,1150.256,992.57z"/>
										</g>
									</g>
								</g>
							</g>
						</g>
					</g>
				</g>
			</g>
			<g>
				<g>
					<g>
						<g>
							<g>
								<g>
									<g>
										<g>
											<path style="fill:#F07162;" d="M1146.939,1006.669c0.456,0.036,0.889-0.248,1.026-0.704
												c0.157-0.524-0.141-1.076-0.665-1.234c-7.724-2.315-14.496-7.415-14.564-7.467c-0.435-0.332-1.057-0.245-1.389,0.191
												c-0.33,0.435-0.245,1.057,0.191,1.389c0.287,0.218,7.127,5.368,15.193,7.786
												C1146.801,1006.651,1146.87,1006.663,1146.939,1006.669z"/>
										</g>
									</g>
								</g>
							</g>
						</g>
					</g>
				</g>
			</g>
			<g>
				<g>
					<g>
						<g>
							<path style="fill:#FF424D;" d="M1364.306,1827.098l-67.417,0.059l-27.36-29.75l-49.968,29.817l-10.768,0.009
								c-3.71,0.003-7.11,2.516-7.806,6.16c-0.936,4.904,2.801,9.189,7.535,9.185l156.758-0.136
								c1.152-0.001,2.085-0.935,2.084-2.087l-0.009-10.212C1367.355,1828.46,1365.989,1827.097,1364.306,1827.098z"/>
						</g>
					</g>
				</g>
				<g>
					<g>
						<g>
							<path style="fill:#223749;" d="M1363.71,1827.185l-0.024-27.674c0,0-11.367-15.273-28.648-7.458
								c0,0-26.131,18.572-49.201-3.855l-57.218,25.44c0,0-15.69,5.26-19.932,13.682L1363.71,1827.185z"/>
						</g>
					</g>
				</g>
				<g>
					<g>
						<g>
							<g>
								<g>
									<rect x="1363.125" y="1799.511" width="1.148" height="27.537"/>
								</g>
							</g>
						</g>
					</g>
				</g>
				<g>
					<g>
						<g>
							<g>
								<g>
									<path d="M1311.611,1799.858c-2.191,0.002-3.511-0.184-3.554-0.191l0.169-1.134c0.133,0.018,13.646,1.901,26.487-6.951
										l0.651,0.946C1326.164,1798.869,1316.618,1799.853,1311.611,1799.858z"/>
								</g>
							</g>
						</g>
					</g>
				</g>
				<g>
					<g>
						<g>
							<g>
								<g>
									
										<rect x="1348.698" y="1818.51" transform="matrix(0.8291 -0.5592 0.5592 0.8291 -785.8521 1067.5397)" width="8.819" height="1.148"/>
								</g>
							</g>
						</g>
					</g>
				</g>
				<g>
					<g>
						<g>
							<g>
								<g>
									
										<rect x="1343.454" y="1817.121" transform="matrix(0.8286 -0.5598 0.5598 0.8286 -786.5627 1066.0463)" width="8.818" height="1.146"/>
								</g>
							</g>
						</g>
					</g>
				</g>
				<g>
					<g>
						<g>
							<g>
								<g>
									<g>
										<g>
											<g>
												<g>
													<g>
														<g>
															<path d="M1203.188,1841.251c-1.853-1.568-2.916-3.86-2.918-6.286c-0.004-4.547,3.692-8.25,8.239-8.254l154.998-0.135
																c2.438-0.002,4.422,1.98,4.424,4.418l0.007,7.65l-1.148,0.001l-0.007-7.65c-0.002-1.805-1.471-3.273-3.275-3.271
																l-154.998,0.135c-3.915,0.003-7.096,3.19-7.092,7.105c0.002,2.088,0.917,4.061,2.512,5.413L1203.188,1841.251z"/>
														</g>
													</g>
												</g>
											</g>
										</g>
									</g>
								</g>
							</g>
						</g>
					</g>
				</g>
				<g>
					<g>
						<g>
							<g>
								<g>
									<path d="M1209.028,1827.53l-1.038-0.489c0.127-0.272,3.262-6.709,14.974-11.715c11.509-4.92,62.13-27.425,62.64-27.651
										l0.467,1.049c-0.511,0.227-51.14,22.735-62.655,27.658C1212.146,1821.199,1209.058,1827.468,1209.028,1827.53z"/>
								</g>
							</g>
						</g>
					</g>
				</g>
			</g>
			<g>
				<g>
					
						<rect x="1322.156" y="714.856" transform="matrix(0.9998 -0.0195 0.0195 0.9998 -15.7889 25.9204)" width="2.223" height="217.908"/>
				</g>
			</g>
			<g>
				<g>
					
						<rect x="1103.38" y="803.244" transform="matrix(0.0175 -0.9998 0.9998 0.0175 365.4726 1980.6527)" width="174.432" height="2.223"/>
				</g>
			</g>
		</g>
		<g>
			<g>
				<path style="fill:#4CB7D8;" d="M905.424,1762.803H628.656l-76.077-616.082c0-40.067,32.48-72.547,72.547-72.547h207.751
					c40.067,0,72.547,32.48,72.547,72.547V1762.803z"/>
			</g>
			<g>
				<path style="fill:#2D85A1;" d="M699.322,1762.803H422.553V1146.72c0-40.067,32.48-72.547,72.547-72.547h131.674
					c40.067,0,72.547,32.48,72.547,72.547V1762.803z"/>
			</g>
			<g>
				<path style="fill:#226F87;" d="M844.882,1102.592H717.994c-2.803,0-5.075-2.272-5.075-5.075l0,0
					c0-2.803,2.272-5.076,5.075-5.076h126.887c2.803,0,5.076,2.272,5.076,5.076l0,0
					C849.957,1100.319,847.685,1102.592,844.882,1102.592z"/>
			</g>
			<g>
				<rect x="422.553" y="1750.115" style="fill:#2D85A1;" width="61.616" height="91.498"/>
			</g>
			<g>
				<rect x="637.706" y="1750.115" style="fill:#2D85A1;" width="61.616" height="91.498"/>
			</g>
			<g>
				<rect x="843.809" y="1750.115" style="fill:#4CB7D8;" width="61.616" height="91.498"/>
			</g>
			<g>
				<g>
					<path style="fill:#2D85A1;" d="M867.661,1479.778H745.855c-9.911,0-17.975-8.063-17.975-17.975V1230.88
						c0-9.911,8.064-17.975,17.975-17.975h121.806c9.911,0,17.975,8.064,17.975,17.975v230.923
						C885.636,1471.714,877.572,1479.778,867.661,1479.778z M745.855,1217.134c-7.579,0-13.745,6.166-13.745,13.745v230.923
						c0,7.579,6.166,13.745,13.745,13.745h121.806c7.579,0,13.746-6.166,13.746-13.745V1230.88c0-7.579-6.166-13.745-13.746-13.745
						H745.855z"/>
				</g>
			</g>
			<g>
				<path style="fill:#2D85A1;" d="M885.636,1381.024h-2.961c-4.438,0-8.036-3.598-8.036-8.036v-53.293
					c0-4.438,3.598-8.036,8.036-8.036h2.961V1381.024z"/>
			</g>
			<g>
				<path style="fill:#21111D;" d="M700.591,1638.973h-2.538v-493.734c0-38.486-31.311-69.796-69.797-69.796H523.081v-2.538h105.175
					c39.885,0,72.334,32.449,72.334,72.334V1638.973z"/>
			</g>
			<g>
				<polygon style="fill:#21111D;" points="462.133,1844.208 421.284,1842.84 421.284,1479.778 423.822,1479.778 423.822,1840.386 
					462.218,1841.672 				"/>
			</g>
			<g>
				<rect x="904.156" y="1195.713" style="fill:#21111D;" width="2.538" height="617.928"/>
			</g>
			<g>
				<polygon style="fill:#21111D;" points="700.591,1842.882 636.437,1842.882 636.437,1762.802 638.975,1762.802 638.975,1840.344 
					698.053,1840.344 698.053,1802.208 700.591,1802.208 				"/>
			</g>
			<g>
				<rect x="699.322" y="1761.534" style="fill:#21111D;" width="95.299" height="2.538"/>
			</g>
			<g>
				<g>
					<path style="fill:#21111D;" d="M650.208,1407.192H471.667c-7.057,0-12.799-5.741-12.799-12.799v-103.992
						c0-7.057,5.741-12.799,12.799-12.799h178.541c7.057,0,12.799,5.741,12.799,12.799v103.992
						C663.007,1401.45,657.266,1407.192,650.208,1407.192z M471.667,1280.986c-5.192,0-9.415,4.224-9.415,9.415v103.992
						c0,5.191,4.223,9.415,9.415,9.415h178.541c5.192,0,9.415-4.224,9.415-9.415v-103.992c0-5.191-4.224-9.415-9.415-9.415H471.667z
						"/>
				</g>
				<g>
					<polygon style="fill:#21111D;" points="560.938,1350.577 459.711,1291.865 461.409,1288.937 560.938,1346.664 
						660.467,1288.937 662.164,1291.865 					"/>
				</g>
			</g>
			<g>
				<path style="fill:#21111D;" d="M844.881,1103.015H719.757c-0.234,0-0.423-0.189-0.423-0.423c0-0.234,0.189-0.423,0.423-0.423
					h125.125c0.234,0,0.423,0.189,0.423,0.423C845.305,1102.826,845.115,1103.015,844.881,1103.015z"/>
			</g>
			<g>
				<path style="fill:#21111D;" d="M831.417,1092.864h-46.948c-0.234,0-0.423-0.189-0.423-0.423c0-0.234,0.189-0.423,0.423-0.423
					h46.948c0.234,0,0.423,0.189,0.423,0.423C831.841,1092.675,831.651,1092.864,831.417,1092.864z"/>
			</g>
		</g>
	</g>
	<g>
		<g>
			<g>
				<g>
					<polygon style="fill:#4C222E;" points="1805.924,1844.208 1797.497,1844.208 1815.989,1541.6 1836.819,1541.6 					"/>
				</g>
			</g>
			<g>
				<g>
					<polygon style="fill:#4C222E;" points="2100.156,1844.208 2108.583,1844.208 2090.091,1541.6 2069.26,1541.6 					"/>
				</g>
			</g>
			<g>
				<g>
					<g>
						<polygon style="fill:#FEC786;" points="1738.335,1118.469 1919.755,1118.469 2015.729,1545.765 1807.834,1523.6 						"/>
					</g>
				</g>
			</g>
			<g>
				<g>
					<g>
						<path style="fill:#F99247;" d="M2154.759,1496.198c0,0-239.285,6.042-310.436,6.042c-11.482,0-21.326-8.38-23.412-19.927
							l-63.262-350.252c-1.7-9.409-10.693-15.559-19.907-13.47c-8.777,1.99-14.26,10.988-12.627,20.028l71.666,396.785
							c0.556,3.076,1.903,5.791,3.77,7.996c4.611,8.761,13.661,14.717,24.072,14.717h329.272c15.089,0,27.321-12.509,27.321-27.94
							l0,0C2181.217,1514.747,2169.848,1496.198,2154.759,1496.198z"/>
					</g>
				</g>
			</g>
			<g>
				<g>
					<g>
						<path style="fill:#21111D;" d="M1844.323,1503.603c-12.123,0-22.52-8.849-24.722-21.042l-63.262-350.252
							c-0.758-4.199-3.093-7.81-6.575-10.169c-3.48-2.357-7.645-3.146-11.733-2.218c-0.717,0.162-1.43-0.301-1.589-1.036
							c-0.159-0.735,0.294-1.462,1.012-1.625c4.8-1.088,9.693-0.161,13.781,2.608c4.09,2.77,6.833,7.012,7.724,11.945
							l63.262,350.252c1.969,10.9,11.264,18.812,22.102,18.812c0.736,0,1.332,0.61,1.332,1.362
							C1845.655,1502.993,1845.058,1503.603,1844.323,1503.603z"/>
					</g>
				</g>
			</g>
			<g>
				<g>
					<g>
						<path style="fill:#21111D;" d="M1962.834,1559.717c-0.001,0-0.002,0-0.002,0l-129.15-0.237
							c-34.789,3.206-38.931-27.238-39.129-28.909l-7.678-42.51c-0.133-0.74,0.345-1.45,1.068-1.587
							c0.727-0.136,1.419,0.352,1.552,1.092l7.702,42.665c0.12,1.21,3.329,29.606,36.305,26.53l0.124-0.005l129.211,0.237
							c0.735,0.002,1.331,0.612,1.33,1.365C1964.165,1559.109,1963.569,1559.717,1962.834,1559.717z"/>
					</g>
				</g>
			</g>
			<g>
				<g>
					<g>
						<path style="fill:#21111D;" d="M1808.229,1119.831c0,0-0.002,0-0.002,0l-63.486-0.095c-0.736-0.001-1.331-0.612-1.331-1.364
							c0.001-0.752,0.597-1.361,1.332-1.361c0,0,0.001,0,0.002,0l63.486,0.095c0.736,0.001,1.331,0.612,1.33,1.364
							C1809.56,1119.222,1808.964,1119.831,1808.229,1119.831z"/>
					</g>
				</g>
			</g>
		</g>
		<g>
			<g>
				<g>
					<g>
						<g>
							<g>
								<g>
									<g>
										<g>
											<g>
												<polygon style="fill:#FE9F73;" points="2356.708,1804.577 2263.646,1805.845 2262.313,1718.842 2355.008,1707.363 
																									"/>
											</g>
										</g>
									</g>
								</g>
							</g>
						</g>
					</g>
				</g>
			</g>
		</g>
		<g>
			<g>
				<g>
					<path style="fill:#FE9F73;" d="M1884.25,1258.144l20.763,8.978l23.091,10.949c0,0,35.86,6.226,36.379,6.11
						c0.076-0.017-2.98,5.338-2.98,5.338c44.494,5.49,184.731,11.25,207.755,13.82c13.88,1.549,27.217,18.806,35.626,32.273
						l-11.399,7.713c0,0-122.469-5.401-122.223-2.829c0.078,0.812,3.532,12.97,8.899,28.879
						c-75.64,5.057-181.57,4.571-201.24-26.601C1862.784,1317.199,1878.516,1280.489,1884.25,1258.144z"/>
				</g>
			</g>
			<g>
				<g>
					<g>
						<g>
							<path style="fill:#FD7583;" d="M2070.594,1497.629c0,0-80.111,1.317-136.26-0.605c-18.023-0.617-34.062,0.653-43.559-1.457
								c-39.082-8.68-48.708-130.677-4.332-205.422c44.376-74.745,199.637,154.744,199.637,154.744L2070.594,1497.629z"/>
						</g>
					</g>
				</g>
			</g>
			<g>
				<g>
					<g>
						<g>
							<g>
								<g>
									<g>
										<g>
											<g>
												<g>
													<polygon style="fill:#FE9F73;" points="2215.565,1807.878 2122.504,1809.145 2121.17,1722.143 2213.865,1710.663 
																											"/>
												</g>
											</g>
										</g>
									</g>
								</g>
							</g>
						</g>
					</g>
				</g>
			</g>
			<g>
				<g>
					<g>
						<g>
							<g>
								<path style="fill:#F4566D;" d="M2156.854,1334.362c0,0,196.784,12.577,202.465,35.302
									c5.681,22.726,21.959,264.335,9.786,367.411c0,0-74.663,5.14-110.371-3.517l-8.691-251.332l-58.939-6.764l-135.018-162.325
									L2156.854,1334.362z"/>
							</g>
						</g>
					</g>
				</g>
			</g>
			<g>
				<g>
					<g>
						<g>
							<g>
								<path style="fill:#FD7583;" d="M2062.309,1330.642c0,0,151.76,42.826,157.441,65.551
									c5.681,22.725,21.852,238.347,9.679,341.423c0,0-80.284,4.599-115.992-4.058l-9.622-237.087l-34.632,1.208l-83.971-147.748
									L2062.309,1330.642z"/>
							</g>
						</g>
					</g>
				</g>
			</g>
			<g>
				<g>
					<g>
						<g>
							<g>
								<path style="fill:#21111D;" d="M2161.611,1740.418c-35.476,0-48.125-5.343-48.724-5.606l-0.785-0.345l-9.315-238.481
									l14.659,6.915l-1.168,2.477l-10.578-4.989l9.07,232.205c3.837,1.325,22.237,6.635,65.692,4.629l0.126,2.736
									C2173.64,1740.28,2167.328,1740.418,2161.611,1740.418z"/>
							</g>
						</g>
					</g>
				</g>
			</g>
			<g>
				<g>
					<g>
						<g>
							<g>
								<path style="fill:#21111D;" d="M2128.342,1688.991c-3.786-14.605-4.869-157.061-4.913-163.119l2.739-0.02
									c0.01,1.48,1.124,148.172,4.825,162.452L2128.342,1688.991z"/>
							</g>
						</g>
					</g>
				</g>
			</g>
			<g>
				<g>
					<g>
						<g>
							<g>
								<path style="fill:#21111D;" d="M2269.374,1487.586c-17.994-5.822-42.764-6.697-43.012-6.705l0.09-2.737
									c0.252,0.008,25.4,0.893,43.766,6.837L2269.374,1487.586z"/>
							</g>
						</g>
					</g>
				</g>
			</g>
			<g>
				<g>
					<g>
						<g>
							<g>
								<path style="fill:#21111D;" d="M2309.869,1739.909c-30.312,0-51.242-4.968-51.456-5.02l-1.011-0.244l-8.787-254.132
									l11.22,9.033l-1.718,2.133l-6.558-5.28l8.509,246.053c4.644,1.002,24.872,4.997,52.456,4.705l0.026,2.739
									C2311.648,1739.905,2310.754,1739.909,2309.869,1739.909z"/>
							</g>
						</g>
					</g>
				</g>
			</g>
			<g>
				<g>
					<g>
						<g>
							<g>
								<path style="fill:#21111D;" d="M2271.692,1694.289c-3.766-22.061-0.174-171.392-0.019-177.738l2.738,0.066
									c-0.038,1.552-3.741,155.411-0.019,177.211L2271.692,1694.289z"/>
							</g>
						</g>
					</g>
				</g>
			</g>
			<g>
				<g>
					<g>
						<g>
							<path style="fill:#21111D;" d="M2010.315,1500.183c-34.955,0-76.862-1.183-123.975-4.731l0.205-2.722
								c140.371,10.577,234.509,0.113,235.443,0.005l0.31,2.711C2121.676,1495.517,2079.716,1500.183,2010.315,1500.183z"/>
						</g>
					</g>
				</g>
			</g>
			<g>
				<g>
					<g>
						<g>
							<g>
								<g>
									<path style="fill:#EF3A4C;" d="M2058.366,1254.118c2.711-0.046,111.723,46.841,111.723,46.841L2148.12,1343l-61.177-13.43
										L2058.366,1254.118z"/>
								</g>
							</g>
						</g>
					</g>
				</g>
			</g>
			<g>
				<g>
					<g>
						<g>
							<path style="fill:#EF3A4C;" d="M1900.419,1058.731c0,0-46.354-1.622-68.482,10.915
								c-33.022,18.709-21.259,125.861-21.259,125.861s28.061-15.307,29.762-20.41
								C1842.142,1169.996,1900.419,1058.731,1900.419,1058.731z"/>
						</g>
					</g>
				</g>
			</g>
			<g>
				<g>
					<g>
						<g>
							<g>
								<g>
									<path style="fill:#21111D;" d="M1889.175,1291.319c0.054,0.021,0.11,0.037,0.168,0.051l34.104,7.804
										c0.686,0.156,1.371-0.273,1.528-0.959c0.157-0.686-0.27-1.368-0.959-1.528l-34.104-7.804
										c-0.686-0.157-1.371,0.273-1.528,0.959C1888.24,1290.471,1888.588,1291.098,1889.175,1291.319z"/>
								</g>
							</g>
						</g>
					</g>
				</g>
			</g>
			<g>
				<g>
					<path style="fill:#F9B59D;" d="M1871.353,1271.043l20.763,8.978l23.091,10.949c0,0,35.86,6.226,36.38,6.11
						c0.076-0.017-2.98,5.337-2.98,5.337c44.494,5.49,184.731,11.25,207.754,13.82c13.88,1.549,27.217,18.806,35.626,32.273
						l-11.399,7.713c0,0-122.469-5.401-122.222-2.829c0.077,0.813,3.532,12.97,8.899,28.878
						c-75.641,5.057-181.57,4.571-201.24-26.601C1849.887,1330.097,1865.619,1293.388,1871.353,1271.043z"/>
				</g>
			</g>
			<g>
				<g>
					<g>
						<g>
							<path style="fill:#EF3A4C;" d="M1855.549,1067.095c26.346-3.648,95.861-6.165,95.861-6.165s9.209,2.416,6.276,1.055
								c76.767,13.556,85.252,70.49,85.252,70.49l37.473,164.499l41.699,2.258c13.496,25.572,3.585,94.548,3.585,94.548
								l-201.976,22.765c0,0-43.657,7.198-80.581-40.159c-24.427-31.329-32.737-127.517-32.726-197.797
								C1810.411,1178.587,1814.609,1072.765,1855.549,1067.095z"/>
						</g>
					</g>
				</g>
			</g>
			<g>
				<g>
					<g>
						<g>
							<polygon style="fill:#FEC786;" points="2421.279,1194.474 2228.971,1194.474 2161.902,1365.282 2354.21,1365.282 							"/>
						</g>
					</g>
					<g>
						<g>
							<polygon style="fill:#F99247;" points="2161.902,1365.282 2171.937,1365.282 2239.006,1194.474 2228.971,1194.474 							"/>
						</g>
					</g>
					<g>
						<g>
							<path style="fill:#E2F2F1;" d="M2295.555,1274.435c-2.666,7.847-0.713,15.606,4.363,17.33
								c5.075,1.725,11.351-3.238,14.016-11.085c2.666-7.847,0.713-15.606-4.363-17.33
								C2304.496,1261.626,2298.22,1266.589,2295.555,1274.435z"/>
						</g>
					</g>
				</g>
				<g>
					<g>
						<path style="fill:#F99247;" d="M2098.331,1351.488h71.843v13.794h-71.843c-3.809,0-6.896-3.088-6.896-6.897l0,0
							C2091.434,1354.576,2094.522,1351.488,2098.331,1351.488z"/>
					</g>
				</g>
				<g>
					<g>
						
							<rect x="2116.519" y="1356.223" transform="matrix(-1 -1.224647e-16 1.224647e-16 -1 4278.4219 2714.6082)" style="fill:#E23E3D;" width="45.383" height="2.161"/>
					</g>
				</g>
			</g>
			<g>
				<g>
					<g>
						<g>
							<g>
								<g>
									<path style="fill:#21111D;" d="M1923.445,1299.821c0.23,0.087,0.486,0.109,0.743,0.048
										c0.686-0.161,1.111-0.849,0.949-1.534c-0.212-0.9-21.321-90.639-30.303-147.109c-0.112-0.697-0.768-1.169-1.46-1.06
										c-0.696,0.111-1.171,0.765-1.06,1.46c8.998,56.565,30.127,146.393,30.339,147.294
										C1922.755,1299.349,1923.062,1299.676,1923.445,1299.821z"/>
								</g>
							</g>
						</g>
					</g>
				</g>
			</g>
			<g>
				<g>
					<g>
						<g>
							<g>
								<g>
									<path style="fill:#21111D;" d="M2054.084,1298.346c0.259,0.098,0.551,0.112,0.833,0.023c0.672-0.212,1.045-0.929,0.833-1.6
										c-0.316-1-31.633-100.376-38.175-134.732c-0.132-0.693-0.802-1.145-1.491-1.015c-0.693,0.132-1.146,0.8-1.015,1.491
										c6.57,34.503,37.932,134.021,38.248,135.022C2053.44,1297.924,2053.73,1298.213,2054.084,1298.346z"/>
								</g>
							</g>
						</g>
					</g>
				</g>
			</g>
			<g>
				<g>
					<g>
						<g>
							<g>
								<g>
									<path style="fill:#21111D;" d="M1926.764,1109.143c0.987,0.102,1.991,0.189,3.014,0.261
										c0.583,0.041,1.091-0.399,1.132-0.984c0.041-0.583-0.38-1.085-0.984-1.132c-43.928-3.084-52.085-35.245-52.147-35.568
										c-0.108-0.565-0.648-0.958-1.219-0.859c-0.568,0.095-0.959,0.613-0.877,1.183
										C1875.731,1072.376,1883.839,1104.702,1926.764,1109.143z"/>
								</g>
							</g>
						</g>
					</g>
				</g>
			</g>
			<g>
				<g>
					<g>
						<g>
							<g>
								<g>
									<path style="fill:#21111D;" d="M2063.048,1274.631c0.572,0.216,1.232-0.005,1.551-0.551l8.562-14.673l-0.112-0.491
										l-28.858-126.679c-0.178-1.143-2.68-15.905-15.193-32.183c-11.731-15.261-34.866-34.667-78.452-40.466
										c-0.698-0.093-1.34,0.398-1.432,1.096c-0.093,0.697,0.399,1.34,1.096,1.432c42.646,5.673,65.237,24.545,76.679,39.378
										c12.399,16.074,14.764,31.019,14.786,31.168l0.018,0.095l28.756,126.233l-8.056,13.803c-0.355,0.608-0.15,1.39,0.459,1.745
										C2062.917,1274.575,2062.982,1274.606,2063.048,1274.631z"/>
								</g>
							</g>
						</g>
					</g>
				</g>
			</g>
			<g>
				<g>
					<g>
						<g>
							<g>
								<g>
									<path style="fill:#21111D;" d="M2108.209,1275.094c0.649,0.245,1.377-0.073,1.635-0.72
										c0.261-0.654-0.058-1.396-0.712-1.658l-36.853-14.701c-0.678-0.234-1.396,0.057-1.657,0.712
										c-0.261,0.654,0.058,1.396,0.712,1.658l36.853,14.701C2108.195,1275.088,2108.201,1275.091,2108.209,1275.094z"/>
								</g>
							</g>
						</g>
					</g>
				</g>
			</g>
			<g>
				<g>
					<g>
						<g>
							<path style="fill:#EF3A4C;" d="M2122.111,1299.231c0,0,13.329,31.458,3.585,94.548l-48.738-26.152l14.477-47.131
								L2122.111,1299.231z"/>
						</g>
					</g>
				</g>
			</g>
			<g>
				<g>
					<g>
						<g>
							<g>
								<g>
									<path style="fill:#21111D;" d="M1879.394,1300.955c0.151,0.057,0.317,0.087,0.489,0.082
										c1.824-0.056,182.287-5.472,241.331-0.601c1.452,3.876,8.114,23.904,6.248,60.546c-0.035,0.704,0.501,1.305,1.208,1.34
										c0.704,0.035,1.304-0.506,1.339-1.209c2.113-41.521-6.369-61.557-6.73-62.39l-0.303-0.697l-0.758-0.065
										c-58.356-4.998-240.58,0.471-242.414,0.526c-0.704,0.021-1.258,0.61-1.236,1.315
										C1878.586,1300.332,1878.925,1300.777,1879.394,1300.955z"/>
								</g>
							</g>
						</g>
					</g>
				</g>
			</g>
			<g>
				<g>
					<g>
						<g>
							<g>
								<g>
									<path style="fill:#21111D;" d="M1888.534,1412.751c2.994,1.132,5.815,2.015,8.414,2.705
										c15.615,4.142,26.522,2.422,26.979,2.346c0.694-0.114,1.164-0.77,1.05-1.465c-0.113-0.694-0.77-1.165-1.464-1.052
										c-0.108,0.018-10.927,1.707-26.043-2.33c-13.942-3.719-34.513-13.227-53.327-37.355
										c-23.618-30.291-32.244-123.549-32.456-194.205c-0.001-0.704-0.575-1.275-1.278-1.272
										c-0.705,0.002-1.274,0.575-1.272,1.279c0.212,71.059,8.98,164.968,32.995,195.767
										C1857.932,1397.432,1874.989,1407.631,1888.534,1412.751z"/>
								</g>
							</g>
						</g>
					</g>
				</g>
			</g>
			<g>
				<g>
					<g>
						<g>
							<path style="fill:#FE9F73;" d="M1895.882,952.32c0,0,21.545-9.163,40.673-2.588c11.076,3.808,18.433,14.338,18.433,26.05
								v11.453l-58.957-25.177c0,0-9.325,4.411-8.577,3.071C1888.202,963.789,1895.882,952.32,1895.882,952.32z"/>
						</g>
					</g>
				</g>
				<g>
					<g>
						<g>
							<g>
								<g>
									<g>
										<path style="fill:#FE9F73;" d="M1954.983,974.493v48.301c0,0,0.719,17.257-14.381,19.415l2.819,23.025
											c1.048,8.558-4.07,16.752-12.29,19.355c-4.019,1.272-8.817,2.202-14.259,2.202c-17.258,0-26.606-12.943-28.044-19.415
											c-1.438-6.471,2.876-37.391,2.876-37.391l-0.526-15.194l1.964-58.87L1954.983,974.493z"/>
									</g>
								</g>
							</g>
						</g>
					</g>
					<g>
						<g>
							<g>
								<g>
									<g>
										<path style="fill:#21111D;" d="M1913.317,997.267c-0.179,0-0.359-0.067-0.498-0.201c-0.286-0.275-0.296-0.73-0.021-1.016
											c0.099-0.104,9.989-10.22,19.027-2.938c0.309,0.248,0.358,0.701,0.109,1.01c-0.249,0.31-0.702,0.359-1.011,0.109
											c-8.008-6.451-16.72,2.433-17.087,2.815C1913.694,997.193,1913.506,997.267,1913.317,997.267z"/>
									</g>
								</g>
							</g>
						</g>
					</g>
					<g>
						<g>
							<g>
								<g>
									<g>
										<path style="fill:#21111D;" d="M1942.959,992.952c-0.202,0-0.401-0.084-0.544-0.249c-0.26-0.299-0.228-0.753,0.072-1.014
											c0.29-0.251,7.149-6.118,11.485-2.399c0.302,0.258,0.336,0.712,0.078,1.013c-0.258,0.303-0.712,0.337-1.014,0.078
											c-3.397-2.913-9.546,2.341-9.608,2.395C1943.294,992.895,1943.126,992.952,1942.959,992.952z"/>
									</g>
								</g>
							</g>
						</g>
					</g>
					<g>
						<g>
							<g>
								<g>
									<g>
										<path d="M1927.858,1000.173c0,1.192-0.966,2.157-2.157,2.157s-2.157-0.966-2.157-2.157c0-1.191,0.966-2.157,2.157-2.157
											S1927.858,998.982,1927.858,1000.173z"/>
									</g>
								</g>
							</g>
						</g>
					</g>
					<g>
						<g>
							<g>
								<g>
									<g>
										<path d="M1950.789,998.016c0,1.191-0.966,2.157-2.157,2.157c-1.191,0-2.157-0.966-2.157-2.157
											c0-1.191,0.966-2.157,2.157-2.157C1949.823,995.859,1950.789,996.824,1950.789,998.016z"/>
									</g>
								</g>
							</g>
						</g>
					</g>
					<g>
						<g>
							<g>
								<g>
									<g>
										<path style="fill:#21111D;" d="M1895.882,951.566c0,0-18.267-0.878-22.901,15.102
											c-4.634,15.979,3.263,24.427,3.423,29.191c0.16,4.764-3.071,36.882,19.477,34.485l6.09-53.051l-7.848-21.121
											L1895.882,951.566z"/>
									</g>
								</g>
							</g>
						</g>
					</g>
					<g>
						<g>
							<g>
								<g>
									<g>
										<path style="fill:#FE9F73;" d="M1910.041,999.424c0,7.148-5.795,12.943-12.943,12.943
											c-7.148,0-12.943-5.795-12.943-12.943c0-7.148,5.795-12.943,12.943-12.943
											C1904.246,986.481,1910.041,992.276,1910.041,999.424z"/>
									</g>
								</g>
							</g>
						</g>
					</g>
					<g>
						<g>
							<g>
								<g>
									<g>
										<path style="fill:#F07162;" d="M1896.141,1007.356c-2.688,0-4.485-2.021-5.076-4.04c-0.699-2.389,0.102-4.71,2.042-5.914
											c2.867-1.78,5.465-0.638,6.796,0.238c-0.558-1.469-1.435-2.539-2.613-3.187c-2.55-1.404-5.713-0.381-5.745-0.371
											c-0.188,0.063-0.392-0.039-0.455-0.228c-0.062-0.188,0.039-0.391,0.227-0.454c0.141-0.047,3.484-1.132,6.314,0.421
											c1.633,0.896,2.744,2.483,3.302,4.716l0.313,1.252l-0.916-0.91c-0.129-0.129-3.208-3.122-6.845-0.865
											c-2.014,1.25-2.192,3.529-1.731,5.101c0.478,1.632,1.911,3.524,4.383,3.524c0.025,0,0.048-0.002,0.074-0.001
											c0.196,0,0.357,0.157,0.359,0.355c0.003,0.198-0.156,0.362-0.354,0.365
											C1896.192,1007.355,1896.166,1007.356,1896.141,1007.356z"/>
									</g>
								</g>
							</g>
						</g>
					</g>
					<g>
						<g>
							<g>
								<g>
									<g>
										<path style="fill:#F07162;" d="M1905.594,1027.547c0,0,1.013,28.885,37.088,31.643l-2.08-16.982
											C1940.602,1042.209,1917.205,1046.909,1905.594,1027.547z"/>
									</g>
								</g>
							</g>
						</g>
					</g>
					<g>
						<g>
							<g>
								<g>
									<g>
										<path style="fill:#F07162;" d="M1935.468,1014.724c-0.151,0-0.291-0.095-0.341-0.246c-0.063-0.189,0.04-0.392,0.228-0.455
											l7.208-2.383l-2.277-16.962c-0.026-0.196,0.111-0.378,0.308-0.404c0.199-0.032,0.378,0.112,0.404,0.308l2.357,17.553
											l-7.774,2.57C1935.543,1014.718,1935.505,1014.724,1935.468,1014.724z"/>
									</g>
								</g>
							</g>
						</g>
					</g>
					<g>
						<g>
							<g>
								<polygon style="fill:#FE9F73;" points="1891.171,1034.003 1893.678,1009.654 1899.723,1010.324 1899.723,1034.705 								
									"/>
							</g>
						</g>
					</g>
				</g>
				<g>
					<g>
						<g>
							<path style="fill:#21111D;" d="M1899.262,951.086c0,0-4.235,10.105,2.71,26.961c6.945,16.855-17.817-6.286-17.817-6.286
								S1885.873,947.09,1899.262,951.086z"/>
						</g>
					</g>
				</g>
			</g>
			<g>
				<g>
					<g>
						<path style="fill:#21111D;" d="M1901.972,978.046c0,0,54.966-3.257,58.355-16.134c3.389-12.877-9.538-13.216-9.538-13.216
							s2.422-18.299-14.183-12.877c-16.605,5.422-47.366,4.713-56.015,20.101C1871.941,971.309,1901.972,978.046,1901.972,978.046z"
							/>
					</g>
				</g>
			</g>
			<g>
				<g>
					<path style="fill:#21111D;" d="M1900.831,987.234l2.37,10.033l2.393-2.997c0,0,4.698-14.402,1.455-21.321
						c-3.243-6.919-16.233,3.027-16.233,3.027L1900.831,987.234z"/>
				</g>
			</g>
			<g>
				<g>
					<g>
						<g>
							<g>
								<g>
									<path style="fill:#FBFDFC;" d="M1944.982,1020.792c-0.231-0.06-15.033-1.351-15.033-1.351s1.471,6.249,6.972,6.743
										C1942.421,1026.678,1944.982,1020.792,1944.982,1020.792z"/>
								</g>
							</g>
						</g>
					</g>
				</g>
			</g>
		</g>
		<g>
			<g>
				<g>
					<path style="fill:#E23E3D;" d="M2262.772,1824.029h80.384l32.591-35.504l59.609,35.504h12.839c4.424,0,8.48,2.992,9.313,7.338
						c1.121,5.847-3.329,10.96-8.974,10.96h-186.907c-1.374,0-2.487-1.113-2.487-2.487v-12.177
						C2259.139,1825.656,2260.765,1824.029,2262.772,1824.029z"/>
				</g>
			</g>
			<g>
				<g>
					<path style="fill:#F46277;" d="M2263.482,1824.133v-33c0,0,13.537-18.224,34.15-8.922c0,0,31.176,22.119,58.66-4.648
						l68.248,30.276c0,0,18.713,6.255,23.78,16.294H2263.482z"/>
				</g>
			</g>
			<g>
				<g>
					<g>
						<g>
							<rect x="2262.798" y="1791.133" width="1.368" height="32.836"/>
						</g>
					</g>
				</g>
			</g>
			<g>
				<g>
					<g>
						<g>
							<path d="M2325.573,1791.492c2.612,0,4.187-0.223,4.237-0.231l-0.203-1.353c-0.159,0.021-16.269,2.281-31.588-8.262
								l-0.775,1.128C2308.221,1790.328,2319.604,1791.492,2325.573,1791.492z"/>
						</g>
					</g>
				</g>
			</g>
			<g>
				<g>
					<g>
						<g>
							
								<rect x="2275.432" y="1809.204" transform="matrix(0.5583 -0.8296 0.8296 0.5583 -499.9886 2689.7996)" width="1.369" height="10.515"/>
						</g>
					</g>
				</g>
			</g>
			<g>
				<g>
					<g>
						<g>
							
								<rect x="2281.685" y="1807.542" transform="matrix(0.5591 -0.8291 0.8291 0.5591 -496.6781 2691.6313)" width="1.367" height="10.514"/>
						</g>
					</g>
				</g>
			</g>
			<g>
				<g>
					<g>
						<g>
							<g>
								<g>
									<g>
										<g>
											<g>
												<g>
													<path d="M2454.893,1840.738c2.207-1.872,3.473-4.605,3.473-7.499c0-5.422-4.411-9.833-9.832-9.833h-184.808
														c-2.907,0-5.271,2.365-5.271,5.272v9.122h1.369v-9.122c0-2.153,1.75-3.904,3.902-3.904h184.808
														c4.667,0,8.464,3.797,8.464,8.465c0,2.49-1.089,4.843-2.99,6.456L2454.893,1840.738z"/>
												</g>
											</g>
										</g>
									</g>
								</g>
							</g>
						</g>
					</g>
				</g>
			</g>
			<g>
				<g>
					<g>
						<g>
							<path d="M2447.914,1824.383l1.238-0.584c-0.152-0.325-3.897-7.997-17.866-13.955c-13.728-5.855-74.108-32.638-74.716-32.907
								l-0.556,1.251c0.61,0.27,60.999,27.056,74.735,32.915C2444.19,1816.837,2447.879,1824.308,2447.914,1824.383z"/>
						</g>
					</g>
				</g>
			</g>
		</g>
		<g>
			<g>
				<g>
					<path style="fill:#FF424D;" d="M2119.927,1824.029h80.384l32.591-35.504l59.609,35.504h12.839c4.424,0,8.48,2.992,9.313,7.338
						c1.121,5.847-3.33,10.96-8.974,10.96h-186.907c-1.374,0-2.487-1.113-2.487-2.487v-12.177
						C2116.294,1825.656,2117.921,1824.029,2119.927,1824.029z"/>
				</g>
			</g>
			<g>
				<g>
					<path style="fill:#FD7583;" d="M2120.638,1824.133v-33c0,0,13.538-18.224,34.15-8.922c0,0,31.176,22.119,58.66-4.648
						l68.248,30.276c0,0,18.713,6.255,23.78,16.294H2120.638z"/>
				</g>
			</g>
			<g>
				<g>
					<g>
						<g>
							<rect x="2119.953" y="1791.133" width="1.368" height="32.836"/>
						</g>
					</g>
				</g>
			</g>
			<g>
				<g>
					<g>
						<g>
							<path d="M2182.729,1791.492c2.612,0,4.187-0.223,4.237-0.231l-0.203-1.353c-0.159,0.021-16.269,2.281-31.588-8.262
								l-0.775,1.128C2165.376,1790.328,2176.76,1791.492,2182.729,1791.492z"/>
						</g>
					</g>
				</g>
			</g>
			<g>
				<g>
					<g>
						<g>
							
								<rect x="2132.587" y="1809.204" transform="matrix(0.5582 -0.8297 0.8297 0.5582 -562.9453 2571.7803)" width="1.369" height="10.515"/>
						</g>
					</g>
				</g>
			</g>
			<g>
				<g>
					<g>
						<g>
							
								<rect x="2138.84" y="1807.542" transform="matrix(0.5593 -0.829 0.829 0.5593 -559.8452 2572.5422)" width="1.367" height="10.514"/>
						</g>
					</g>
				</g>
			</g>
			<g>
				<g>
					<g>
						<g>
							<g>
								<g>
									<g>
										<g>
											<g>
												<g>
													<path d="M2312.048,1840.738c2.207-1.872,3.473-4.605,3.473-7.499c0-5.422-4.411-9.833-9.833-9.833H2120.88
														c-2.906,0-5.271,2.365-5.271,5.272v9.122h1.368v-9.122c0-2.153,1.75-3.904,3.902-3.904h184.808
														c4.668,0,8.464,3.797,8.464,8.465c0,2.49-1.089,4.843-2.99,6.456L2312.048,1840.738z"/>
												</g>
											</g>
										</g>
									</g>
								</g>
							</g>
						</g>
					</g>
				</g>
			</g>
			<g>
				<g>
					<g>
						<g>
							<path d="M2305.07,1824.383l1.238-0.584c-0.153-0.325-3.897-7.997-17.866-13.955c-13.728-5.855-74.108-32.638-74.716-32.907
								l-0.556,1.251c0.61,0.27,60.999,27.056,74.735,32.915C2301.346,1816.837,2305.035,1824.308,2305.07,1824.383z"/>
						</g>
					</g>
				</g>
			</g>
		</g>
	</g>
	<g>
		
			<rect x="2314.482" y="1001.782" transform="matrix(0.9777 0.21 -0.21 0.9777 269.2923 -474.69)" style="fill:#FED9AD;" width="110.831" height="57.867"/>
		<g>
			<path style="fill:#21111D;" d="M2313.018,1031.651c-0.248-0.053-0.406-0.297-0.353-0.545l8.863-41.264l46.59,49.161
				l50.687-20.781c0.235-0.095,0.503,0.017,0.599,0.251c0.096,0.235-0.016,0.503-0.251,0.599l-51.269,21.019l-0.217-0.228
				l-45.608-48.124l-8.497,39.56C2313.51,1031.547,2313.265,1031.705,2313.018,1031.651z"/>
		</g>
		<g>
			<path style="fill:#21111D;" d="M2309.546,1047.817c-0.162-0.035-0.299-0.156-0.346-0.326c-0.068-0.244,0.075-0.498,0.319-0.566
				l52.04-14.489c0.244-0.068,0.498,0.075,0.566,0.319c0.068,0.244-0.075,0.498-0.32,0.566l-52.04,14.489
				C2309.691,1047.83,2309.616,1047.832,2309.546,1047.817z"/>
		</g>
		<g>
			<path style="fill:#21111D;" d="M2413.023,1070.042l-87.635-18.823c-0.248-0.053-0.406-0.297-0.353-0.546s0.298-0.406,0.546-0.353
				l87.635,18.823c0.248,0.053,0.406,0.297,0.353,0.545C2413.515,1069.938,2413.271,1070.095,2413.023,1070.042z"/>
		</g>
		<g>
			<path style="fill:#21111D;" d="M2417.905,1071.091c-0.07-0.015-0.138-0.047-0.197-0.096l-41.5-34.58
				c-0.195-0.162-0.221-0.452-0.059-0.647c0.163-0.195,0.452-0.221,0.647-0.059l41.5,34.58c0.195,0.162,0.221,0.452,0.059,0.647
				C2418.241,1071.072,2418.066,1071.125,2417.905,1071.091z"/>
		</g>
		<g>
			<path style="fill:#21111D;" d="M2429.511,1017.058c-0.248-0.053-0.406-0.297-0.353-0.545l0.45-2.096l-30.477-6.546
				c-0.248-0.053-0.406-0.297-0.353-0.545c0.053-0.248,0.298-0.406,0.545-0.353l31.375,6.739l-0.643,2.994
				C2430.003,1016.954,2429.759,1017.112,2429.511,1017.058z"/>
		</g>
	</g>
	<g>
		
			<rect x="2474.69" y="882.556" transform="matrix(0.9396 -0.3423 0.3423 0.9396 -156.26 911.8676)" style="fill:#FED9AD;" width="61.784" height="32.259"/>
		<g>
			<path style="fill:#21111D;" d="M2479.01,915.994c-0.133,0.048-0.28-0.02-0.328-0.153l-8.053-22.107l36.571,9.39l17.764-24.84
				c0.083-0.115,0.243-0.141,0.357-0.059c0.115,0.082,0.142,0.242,0.059,0.357l-17.968,25.125l-0.17-0.043l-35.8-9.192l7.72,21.194
				C2479.211,915.799,2479.142,915.946,2479.01,915.994z"/>
		</g>
		<g>
			<path style="fill:#21111D;" d="M2482.164,924.654c-0.086,0.032-0.187,0.015-0.26-0.051c-0.104-0.095-0.112-0.257-0.017-0.362
				l20.269-22.271c0.095-0.104,0.257-0.112,0.362-0.017c0.105,0.095,0.112,0.257,0.017,0.362l-20.269,22.271
				C2482.237,924.618,2482.202,924.641,2482.164,924.654z"/>
		</g>
		<g>
			<path style="fill:#21111D;" d="M2537.601,904.46l-46.949,17.102c-0.133,0.048-0.28-0.02-0.328-0.153s0.02-0.28,0.153-0.328
				l46.949-17.102c0.133-0.048,0.28,0.02,0.328,0.153C2537.802,904.265,2537.734,904.412,2537.601,904.46z"/>
		</g>
		<g>
			<path style="fill:#21111D;" d="M2540.216,903.508c-0.038,0.014-0.079,0.019-0.122,0.013l-29.844-4.017
				c-0.14-0.019-0.239-0.148-0.22-0.288c0.019-0.14,0.148-0.238,0.288-0.22l29.844,4.016c0.14,0.019,0.238,0.148,0.219,0.288
				C2540.369,903.399,2540.303,903.476,2540.216,903.508z"/>
		</g>
		<g>
			<path style="fill:#21111D;" d="M2529.672,874.56c-0.133,0.048-0.28-0.02-0.328-0.153l-0.409-1.123l-16.327,5.948
				c-0.133,0.048-0.28-0.02-0.328-0.153c-0.049-0.133,0.02-0.28,0.153-0.328l16.809-6.123l0.584,1.604
				C2529.873,874.365,2529.805,874.512,2529.672,874.56z"/>
		</g>
	</g>
	<g>
		
			<rect x="2633.003" y="829.294" transform="matrix(0.9946 0.1039 -0.1039 0.9946 101.7023 -271.2562)" style="fill:#FED9AD;" width="43.575" height="22.751"/>
		<g>
			<path style="fill:#21111D;" d="M2632.596,843.434c-0.099-0.01-0.171-0.099-0.161-0.198l1.724-16.504l20.286,17.251l18.937-10.261
				c0.088-0.047,0.198-0.015,0.245,0.073c0.048,0.088,0.015,0.197-0.073,0.245l-19.154,10.379l-0.094-0.08l-19.858-16.888
				l-1.653,15.822C2632.784,843.373,2632.695,843.445,2632.596,843.434z"/>
		</g>
		<g>
			<path style="fill:#21111D;" d="M2631.921,849.9c-0.065-0.007-0.124-0.048-0.149-0.113c-0.037-0.093,0.008-0.198,0.101-0.235
				l19.731-7.859c0.093-0.037,0.198,0.008,0.235,0.101c0.037,0.093-0.008,0.198-0.101,0.235l-19.731,7.859
				C2631.978,849.899,2631.949,849.903,2631.921,849.9z"/>
		</g>
		<g>
			<path style="fill:#21111D;" d="M2673.307,854.222l-35.05-3.661c-0.099-0.01-0.171-0.099-0.161-0.198s0.099-0.171,0.198-0.161
				l35.05,3.661c0.099,0.01,0.171,0.099,0.161,0.198C2673.495,854.161,2673.406,854.233,2673.307,854.222z"/>
		</g>
		<g>
			<path style="fill:#21111D;" d="M2675.26,854.427c-0.028-0.003-0.056-0.013-0.081-0.029l-17.681-11.766
				c-0.083-0.055-0.105-0.167-0.05-0.25c0.055-0.083,0.167-0.105,0.25-0.05l17.681,11.767c0.083,0.055,0.105,0.167,0.05,0.25
				C2675.39,854.405,2675.324,854.433,2675.26,854.427z"/>
		</g>
		<g>
			<path style="fill:#21111D;" d="M2677.517,832.816c-0.099-0.01-0.171-0.099-0.161-0.198l0.087-0.838l-12.189-1.273
				c-0.099-0.01-0.171-0.099-0.161-0.198s0.099-0.171,0.198-0.161l12.549,1.311l-0.125,1.197
				C2677.705,832.754,2677.616,832.826,2677.517,832.816z"/>
		</g>
	</g>
</g>
</svg>
